<svg xmlns="http://www.w3.org/2000/svg" width="64" height="64" viewBox="0 0 1323 1034">
  <path d="M 1252 273 L 1244 258 L 1240 253 L 1237 245 L 1221 227 L 1214 214 L 1210 210 L 1200 205 L 1194 199 L 1185 194 L 1170 181 L 1161 179 L 1136 166 L 1126 164 L 1124 162 L 1116 159 L 1102 157 L 1094 153 L 1072 149 L 1067 146 L 1045 144 L 1032 139 L 1016 137 L 995 130 L 984 130 L 960 122 L 945 121 L 934 117 L 906 110 L 896 109 L 858 99 L 850 98 L 843 95 L 836 95 L 824 92 L 819 92 L 809 88 L 784 84 L 773 80 L 762 79 L 754 77 L 743 72 L 728 70 L 724 68 L 705 64 L 685 64 L 684 63 L 642 64 L 626 69 L 600 72 L 582 78 L 563 80 L 547 85 L 535 86 L 520 90 L 513 90 L 498 94 L 486 95 L 474 99 L 457 101 L 441 107 L 427 108 L 403 114 L 387 116 L 369 121 L 349 123 L 334 128 L 314 131 L 311 133 L 292 137 L 282 137 L 263 143 L 242 146 L 232 150 L 184 155 L 168 161 L 143 166 L 137 166 L 117 172 L 108 172 L 106 173 L 104 177 L 105 179 L 105 240 L 111 246 L 125 250 L 140 252 L 150 256 L 154 256 L 159 258 L 175 259 L 182 262 L 207 267 L 219 272 L 228 273 L 244 278 L 262 280 L 274 284 L 283 285 L 298 291 L 313 292 L 328 295 L 332 297 L 345 299 L 374 307 L 379 307 L 392 310 L 403 314 L 418 316 L 422 318 L 431 319 L 439 322 L 465 326 L 475 330 L 481 330 L 494 334 L 503 335 L 507 337 L 523 339 L 541 344 L 555 346 L 559 348 L 570 350 L 573 352 L 586 353 L 596 357 L 615 360 L 629 365 L 654 367 L 655 368 L 691 368 L 692 367 L 701 367 L 708 365 L 727 364 L 736 360 L 752 357 L 767 351 L 780 349 L 795 342 L 808 338 L 816 333 L 830 330 L 839 325 L 859 320 L 862 318 L 876 314 L 888 308 L 902 304 L 910 300 L 922 297 L 927 294 L 942 290 L 958 283 L 973 279 L 978 276 L 981 276 L 989 272 L 1005 268 L 1025 260 L 1032 260 L 1044 257 L 1067 256 L 1068 255 L 1090 255 L 1091 256 L 1110 257 L 1117 259 L 1120 262 L 1125 264 L 1134 271 L 1137 272 L 1147 282 L 1150 288 L 1154 292 L 1155 296 L 1159 302 L 1163 321 L 1163 337 L 1159 353 L 1159 358 L 1155 369 L 1149 380 L 1147 387 L 1122 412 L 1114 415 L 1104 421 L 1099 422 L 1089 428 L 1078 431 L 1072 435 L 1058 439 L 1051 443 L 1030 450 L 1023 451 L 1018 453 L 1013 457 L 988 466 L 980 471 L 968 474 L 964 477 L 951 481 L 945 485 L 918 494 L 909 500 L 898 502 L 890 507 L 882 508 L 872 514 L 859 517 L 852 521 L 839 524 L 831 529 L 819 532 L 816 535 L 801 541 L 798 544 L 781 548 L 777 551 L 762 555 L 758 558 L 742 562 L 722 570 L 703 572 L 686 577 L 681 577 L 680 576 L 658 577 L 648 574 L 625 571 L 615 567 L 606 566 L 598 563 L 575 560 L 567 556 L 556 553 L 541 552 L 532 548 L 522 546 L 518 544 L 509 543 L 498 539 L 478 536 L 470 532 L 453 529 L 441 524 L 427 523 L 406 517 L 394 516 L 361 506 L 348 504 L 331 498 L 306 495 L 292 489 L 269 485 L 264 482 L 252 480 L 236 474 L 223 473 L 206 469 L 202 467 L 173 462 L 163 458 L 153 457 L 128 450 L 117 449 L 110 445 L 108 445 L 105 448 L 105 526 L 107 532 L 109 533 L 127 535 L 138 540 L 157 542 L 167 545 L 172 548 L 189 551 L 202 555 L 212 556 L 226 561 L 242 564 L 248 564 L 260 569 L 280 572 L 304 580 L 337 586 L 357 593 L 370 594 L 383 599 L 390 599 L 408 603 L 416 607 L 442 610 L 452 614 L 463 616 L 469 619 L 486 621 L 504 627 L 509 627 L 514 629 L 531 630 L 541 635 L 557 638 L 568 642 L 584 644 L 602 650 L 624 653 L 638 658 L 661 659 L 667 661 L 686 661 L 687 660 L 706 660 L 707 659 L 730 657 L 736 653 L 752 649 L 767 642 L 771 642 L 784 635 L 804 630 L 818 623 L 841 616 L 851 610 L 866 607 L 874 602 L 886 599 L 893 595 L 910 591 L 918 586 L 927 584 L 938 579 L 949 576 L 954 573 L 960 572 L 975 565 L 995 560 L 1000 557 L 1040 545 L 1054 542 L 1066 542 L 1067 541 L 1101 544 L 1115 552 L 1128 563 L 1133 565 L 1139 571 L 1142 577 L 1147 581 L 1153 591 L 1155 602 L 1157 605 L 1159 613 L 1160 633 L 1159 634 L 1157 650 L 1145 678 L 1139 686 L 1130 693 L 1119 705 L 1115 707 L 1112 707 L 1091 719 L 1071 725 L 1055 734 L 1047 736 L 1036 742 L 1030 743 L 1023 747 L 1007 751 L 1005 753 L 992 757 L 986 761 L 976 764 L 951 776 L 941 778 L 931 784 L 921 786 L 909 793 L 901 794 L 889 801 L 882 802 L 872 807 L 866 808 L 858 812 L 843 816 L 836 821 L 823 824 L 818 828 L 806 831 L 795 837 L 782 841 L 779 843 L 776 843 L 769 847 L 752 851 L 741 852 L 737 855 L 731 857 L 721 857 L 710 860 L 664 860 L 663 859 L 646 859 L 645 858 L 624 857 L 608 852 L 585 848 L 575 844 L 556 842 L 542 839 L 525 832 L 516 832 L 506 829 L 493 827 L 482 823 L 470 822 L 466 820 L 459 819 L 456 817 L 441 814 L 435 814 L 434 813 L 426 813 L 412 808 L 393 807 L 377 801 L 354 798 L 341 793 L 333 792 L 324 789 L 313 788 L 310 786 L 299 784 L 279 778 L 266 777 L 260 774 L 252 772 L 242 771 L 228 767 L 214 765 L 193 758 L 178 757 L 167 754 L 158 750 L 152 750 L 140 747 L 132 747 L 122 743 L 116 743 L 110 740 L 105 742 L 105 817 L 106 820 L 110 824 L 116 824 L 139 830 L 168 834 L 183 839 L 199 841 L 214 846 L 225 847 L 239 852 L 252 853 L 274 860 L 284 861 L 301 868 L 317 870 L 332 875 L 344 876 L 370 884 L 379 885 L 396 890 L 407 891 L 424 897 L 442 899 L 451 903 L 461 904 L 473 908 L 481 908 L 485 910 L 505 914 L 508 916 L 525 919 L 532 922 L 537 922 L 550 927 L 568 928 L 583 934 L 604 937 L 614 941 L 628 942 L 646 947 L 704 948 L 705 947 L 718 946 L 728 942 L 743 941 L 753 936 L 765 934 L 779 927 L 785 926 L 791 922 L 802 919 L 807 919 L 815 913 L 825 911 L 831 907 L 844 904 L 852 899 L 859 898 L 862 896 L 867 895 L 869 893 L 883 889 L 888 886 L 900 883 L 907 879 L 920 876 L 933 869 L 940 868 L 951 862 L 958 861 L 968 856 L 999 846 L 1008 841 L 1011 841 L 1025 835 L 1035 833 L 1049 827 L 1058 825 L 1067 820 L 1078 817 L 1085 812 L 1097 809 L 1104 805 L 1118 802 L 1127 796 L 1135 794 L 1140 790 L 1178 772 L 1186 766 L 1188 762 L 1193 759 L 1204 746 L 1209 743 L 1229 718 L 1231 712 L 1237 706 L 1239 700 L 1245 693 L 1248 685 L 1252 681 L 1256 668 L 1258 654 L 1260 651 L 1261 640 L 1262 639 L 1262 605 L 1256 574 L 1245 551 L 1240 544 L 1237 534 L 1225 522 L 1217 510 L 1195 488 L 1192 487 L 1188 483 L 1188 472 L 1189 470 L 1195 465 L 1197 461 L 1202 456 L 1206 454 L 1213 447 L 1221 436 L 1229 428 L 1234 419 L 1238 415 L 1239 410 L 1245 403 L 1248 392 L 1252 387 L 1255 376 L 1260 365 L 1260 356 L 1262 348 L 1262 339 L 1261 338 L 1262 319 L 1260 309 L 1260 298 L 1253 280 Z" fill="#c88a00"/>
</svg>
